<?xml version="1.0" encoding="UTF-8" standalone="no"?>
<svg
   version="1.1"
   width="256"
   height="256"
   viewBox="0 0 256 256"
   xml:space="preserve"
   id="svg14"
   sodipodi:docname="mail_white.svg"
   inkscape:version="1.1.1 (3bf5ae0d25, 2021-09-20)"
   xmlns:inkscape="http://www.inkscape.org/namespaces/inkscape"
   xmlns:sodipodi="http://sodipodi.sourceforge.net/DTD/sodipodi-0.dtd"
   xmlns="http://www.w3.org/2000/svg"
   xmlns:svg="http://www.w3.org/2000/svg"><sodipodi:namedview
   id="namedview16"
   pagecolor="#ffffff"
   bordercolor="#999999"
   borderopacity="1"
   inkscape:pageshadow="0"
   inkscape:pageopacity="0"
   inkscape:pagecheckerboard="0"
   showgrid="false"
   inkscape:zoom="3.40625"
   inkscape:cx="127.85321"
   inkscape:cy="128.14679"
   inkscape:window-width="1858"
   inkscape:window-height="1057"
   inkscape:window-x="1912"
   inkscape:window-y="-8"
   inkscape:window-maximized="1"
   inkscape:current-layer="svg14" />
<desc
   id="desc2">Created with Fabric.js 1.7.22</desc>
<defs
   id="defs4">
</defs>
<g
   transform="translate(128 128) scale(0.72 0.72)"
   style="fill:#ffffff;fill-opacity:1"
   id="g12">
	<g
   style="stroke:none;stroke-width:0;stroke-dasharray:none;stroke-linecap:butt;stroke-linejoin:miter;stroke-miterlimit:10;fill:#ffffff;fill-rule:nonzero;opacity:1;fill-opacity:1"
   transform="translate(-175.05 -175.05) scale(3.89 3.89)"
   id="g10">
	<path
   d="M 45 42.768 l 45 -20.785 v -3.587 c 0 -3.186 -2.582 -5.768 -5.768 -5.768 H 5.768 C 2.582 12.627 0 15.209 0 18.395 v 3.587 L 45 42.768 z"
   style="stroke:none;stroke-width:1;stroke-dasharray:none;stroke-linecap:butt;stroke-linejoin:miter;stroke-miterlimit:10;fill:#ffffff;fill-rule:nonzero;opacity:1;fill-opacity:1"
   transform=" matrix(1 0 0 1 0 0) "
   stroke-linecap="round"
   id="path6" />
	<path
   d="M 45 52.626 L 0 31.84 v 39.765 c 0 3.186 2.582 5.768 5.768 5.768 h 78.464 c 3.186 0 5.768 -2.582 5.768 -5.768 V 31.84 L 45 52.626 z"
   style="stroke:none;stroke-width:1;stroke-dasharray:none;stroke-linecap:butt;stroke-linejoin:miter;stroke-miterlimit:10;fill:#ffffff;fill-rule:nonzero;opacity:1;fill-opacity:1"
   transform=" matrix(1 0 0 1 0 0) "
   stroke-linecap="round"
   id="path8" />
</g>
</g>
</svg>
